General                          : ChattChitto RG - Movies
==========
Complete name                    : The Private Lives of Pippa Lee 2009 BDRip.mp4
Format                           : MPEG-4
Format profile                   : Base Media
Codec ID                         : isom
File size                        : 1.83 GiB
Duration                         : 1h 38mn
Overall bit rate                 : 2 663 Kbps
Encoded date                     : UTC 2010-03-04 19:12:59

Video
==========
ID                               : 1
Format                           : AVC
Format/Info                      : Advanced Video Codec
Format profile                   : High@L3.1
Format settings, CABAC           : Yes
Format settings, ReFrames        : 3 frames
Codec ID                         : avc1
Codec ID/Info                    : Advanced Video Coding
Duration                         : 1h 38mn
Bit rate mode                    : Variable
Bit rate                         : 2 300 Kbps
Maximum bit rate                 : 12.3 Mbps
Width                            : 1 280 pixels
Height                           : 720 pixels
Display aspect ratio             : 16:9 | 1.778
Frame rate mode                  : Constant
Frame rate                       : 23.976 fps
Resolution                       : 8 bits
Colorimetry                      : 4:2:0
Scan type                        : Progressive
Bits/(Pixel*Frame)               : 0.104
Stream size                      : 1.58 GiB (86%)
Writing library                  : x264 core 
Encoded date                     : UTC 2010-03-04 18:32:07

Audio
==========
ID                               : 2
Format                           : AAC
Format/Info                      : Advanced Audio Codec
Format version                   : Version 4
Format profile                   : LC
Format settings, SBR             : No
Codec ID                         : 40
Duration                         : 1h 38mn
Bit rate mode                    : Variable
Bit rate                         : 360 Kbps
Maximum bit rate                 : 451 Kbps
Channel(s)                       : 6 channels
Channel positions                : Front: L C R, Rear: L R, LFE
Sampling rate                    : 48.0 KHz
Stream size                      : 253 MiB (14%)
Encoded date                     : UTC 2010-03-04 19:13:55

Subtitles                        : English | Spanish [.srt]



----------------------------------------------------
IMDB Link: http://www.imdb.com/title/tt1134629/
----------------------------------------------------


Screen Shots:
==============
http://bayimg.com/PalpGAACa
http://bayimg.com/palPHAaCA
http://bayimg.com/PAlPIaACa
http://bayimg.com/pALPJaACa
http://bayimg.com/PaLPKAaCa



Plot:
======
After her much older husband forces a move to a suburban retirement community, 
Pippa Lee engages in a period of reflection and finds herself heading toward a 
quiet nervous breakdown.


Release Info:
==============
original name .... : The Private Lives Of Piipa Lee 2009 BDRip                                
ripper.............: Recalled2Life (R2L)
encoder............: Recalled2Life (R2L)
video codec........: H264/.MP4                   
video bitrate......: 2300 Kbps                           
audio codec........: ACC-LC	                                        
aspect ratio.......: 16:9 | 1.778
resolution.........: 1280 x 720
genre..............: Drama | Romance
runtime............: 1h 38mn
language...........: English
subtitles..........: English | Spanish [.srt]
2ch Audio..........: 2ch Audio for XBox Viewers



Source:
========
The Private Lives Of Pippa Lee 2009 Blue-Ray 1080p MPEG-4 AVC/DTS-HD Master Audio 5.1 [19.3 GB]


Notes:
=======
ChattChitto RG Encourages Burning this Film with ConvertXtoDVD.
Enhanced and Filtered for your viewing pleasure ;)